# xmcd
#
# Track frame offsets: 
#        150
#        13817
#        26292
#        42830
#        56192
#        67680
#        81530
#        95885
#        110150
#        125832
#        137845
#        150525
#
# Disc length: 2154 seconds
#
# Revision: 4
# Processed by: cddbd v1.5.2PL0 Copyright (c) Steve Scherf et al.
# Submitted via: ExactAudioCopy v0.99pb5
#
DISCID=a908680c
DTITLE=Louis Armstrong - Louis and The Good Book
DYEAR=1980
DGENRE=Blues
TTITLE0=Nobody knows the trouble I've seen
TTITLE1=Shadrack
TTITLE2=Go down Moses
TTITLE3=Rock my soul (In the Bosom of Abraham)
TTITLE4=Ezekiel saw the wheel
TTITLE5=On my way (Got on my travelin' shoes)
TTITLE6=Down by the riverside
TTITLE7=Swing low, sweet chariot
TTITLE8=Sometimes I feel like a motherless child
TTITLE9=Jonah and the Whale
TTITLE10=Didn't it rain
TTITLE11=This train
EXTD=
EXTT0=
EXTT1=
EXTT2=
EXTT3=
EXTT4=
EXTT5=
EXTT6=
EXTT7=
EXTT8=
EXTT9=
EXTT10=
EXTT11=
PLAYORDER=
